<svg width="21" height="21" viewBox="0 0 21 21" fill="none" xmlns="http://www.w3.org/2000/svg">
<path d="M8.82935 15.9018C8.63671 15.9022 8.45002 15.8351 8.30168 15.7122C8.13307 15.5724 8.02701 15.3712 8.0069 15.1531C7.98679 14.935 8.05429 14.7179 8.1945 14.5496L11.8882 10.1305L8.32642 5.70301C8.18809 5.53268 8.12337 5.31424 8.14659 5.09605C8.1698 4.87786 8.27903 4.67792 8.45009 4.5405C8.62254 4.38876 8.85048 4.31585 9.07898 4.33933C9.30748 4.3628 9.51583 4.48054 9.65382 4.66417L13.636 9.61103C13.8861 9.91527 13.8861 10.3539 13.636 10.6581L9.51366 15.605C9.34591 15.8073 9.09173 15.9176 8.82935 15.9018Z" fill="#637381"/>
</svg>
